<?xml version="1.0" encoding="UTF-8" standalone="no"?>
<!DOCTYPE svg PUBLIC "-//W3C//DTD SVG 1.1//EN" "http://www.w3.org/Graphics/SVG/1.1/DTD/svg11.dtd">
<svg width="100%" height="100%" viewBox="0 0 200 200" version="1.1" xmlns="http://www.w3.org/2000/svg" xmlns:xlink="http://www.w3.org/1999/xlink" xml:space="preserve" xmlns:serif="http://www.serif.com/" style="fill-rule:evenodd;clip-rule:evenodd;stroke-linejoin:round;stroke-miterlimit:2;">
    <path d="M77,121.8C100.6,86.6 129.4,35 138.8,45.4L139,56.4L100,98.4L77,121.8Z" style="fill:rgb(188,226,236);fill-rule:nonzero;"/>
    <g transform="matrix(1.06505,0,0,1.06505,0.822604,-16.3021)">
        <path d="M22,193.8C19.6,193.8 17.2,191 19.2,188.4L39.6,161.2L37.4,160L32.6,157C15.6,145.4 5.6,126.8 24.4,105.6C36.6,92 59.4,90.4 81.4,91L92.2,91.4L113.6,63L113,62.6C104.2,55 102,43.6 116.8,31.2C141.2,11 181.4,40.4 170,75.4C163,97 138,99.4 113,99L105.2,98.8L52.6,159.8L55.6,161C67,164.8 78.4,166 85.6,164.2C105.4,159.4 103.4,142.8 90.2,142C88.4,141.8 87,140.4 87.2,138.4C87.4,136.6 88.8,135.2 90.8,135.4C112.6,136.8 114.2,164 87.4,170.6C84,171.4 79.8,171.8 75.4,171.6C68.6,171.2 61,169.8 53.6,167.4L48,165.4L24.4,192.6C23.6,193.4 22.8,193.8 22,193.8ZM43.6,156L87.2,98L79.4,97.8C57.4,97.4 39.2,99 29.4,110.2C14.2,127.4 21.2,141.4 36.4,151.6C38.4,153 40.4,154.2 42.4,155.2L43.6,156ZM85,112L96.8,98.4L95.4,98.4L85,112ZM113.8,92.4C139.2,92.8 158.4,90 163.8,73.4C173.4,43.6 139.6,21 120.8,36.6C111,44.6 111,51 115.2,55.8L117.6,58L125.6,47.4C129.4,42.4 135.2,39.4 139.8,41.4C145.6,43.6 145.4,50.2 141.4,57C141.4,57.2 141.2,57.4 141,57.4L134,65.6L137,66.2C142.4,67.2 147.4,67 149.8,66C151.4,65.2 153.4,66 154.2,67.6C155,69.2 154.2,71.2 152.6,72C147.6,74.2 139.2,73.8 131,71.6L129.2,71L111,92.2L113.8,92.4ZM102.2,92L122.4,68.6L121.2,68.2L119,67L100.2,92L102.2,92ZM127,63.4L135.6,53.4L136.6,51.6C138.6,47.6 137,47.4 137.2,47.4C136.6,47.2 133.6,47.4 130.6,51.4L123,61.6L124.4,62.4L127,63.4Z" style="fill:rgb(85,84,95);fill-rule:nonzero;"/>
    </g>
</svg>
